<?xml version="1.0" encoding="utf-8"?>
<!-- Generator: Adobe Illustrator 22.0.0, SVG Export Plug-In . SVG Version: 6.00 Build 0)  -->
<svg version="1.1" id="Capa_1" focusable="false" xmlns="http://www.w3.org/2000/svg" xmlns:xlink="http://www.w3.org/1999/xlink"
	 x="0px" y="0px" viewBox="0 0 448 512" style="enable-background:new 0 0 448 512;" xml:space="preserve">
<path d="M36,132h376c19.9,0,36-16.1,36-36v0c0-19.9-16.1-36-36-36H36C16.1,60,0,76.1,0,96v0C0,115.9,16.1,132,36,132z M77,292h299
	c19.9,0,36-16.1,36-36v0c0-19.9-16.1-36-36-36H77c-19.9,0-36,16.1-36,36l-1,0C40,275.9,57.1,292,77,292z M36,452h376
	c19.9,0,36-16.1,36-36v0c0-19.9-16.1-36-36-36H36c-19.9,0-36,16.1-36,36v0C0,435.9,16.1,452,36,452z"/>
</svg>
